<?xml version="1.0" encoding="UTF-8" standalone="no"?>
<!-- Created with Inkscape (http://www.inkscape.org/) -->

<svg
   xmlns:dc="http://purl.org/dc/elements/1.1/"
   xmlns:cc="http://creativecommons.org/ns#"
   xmlns:rdf="http://www.w3.org/1999/02/22-rdf-syntax-ns#"
   xmlns:svg="http://www.w3.org/2000/svg"
   xmlns="http://www.w3.org/2000/svg"
   xmlns:sodipodi="http://sodipodi.sourceforge.net/DTD/sodipodi-0.dtd"
   xmlns:inkscape="http://www.inkscape.org/namespaces/inkscape"
   id="svg3969"
   version="1.1"
   inkscape:version="0.48.4 r9939"
   width="744.095"
   height="1052.3625"
   xml:space="preserve"
   sodipodi:docname="HX3_kbp_logo.pdf"><metadata
     id="metadata3975"><rdf:RDF><cc:Work
         rdf:about=""><dc:format>image/svg+xml</dc:format><dc:type
           rdf:resource="http://purl.org/dc/dcmitype/StillImage" /><dc:title></dc:title></cc:Work></rdf:RDF></metadata><defs
     id="defs3973"><clipPath
       clipPathUnits="userSpaceOnUse"
       id="clipPath3983"><path
         d="m 0,841.89 595.276,0 L 595.276,0 0,0 0,841.89 z"
         id="path3985" /></clipPath></defs><sodipodi:namedview
     pagecolor="#ffffff"
     bordercolor="#666666"
     borderopacity="1"
     objecttolerance="10"
     gridtolerance="10"
     guidetolerance="10"
     inkscape:pageopacity="0"
     inkscape:pageshadow="2"
     inkscape:window-width="1458"
     inkscape:window-height="1011"
     id="namedview3971"
     showgrid="false"
     inkscape:zoom="1.7940585"
     inkscape:cx="354.75232"
     inkscape:cy="979.97099"
     inkscape:window-x="0"
     inkscape:window-y="0"
     inkscape:window-maximized="0"
     inkscape:current-layer="g3977" /><g
     id="g3977"
     inkscape:groupmode="layer"
     inkscape:label="HX3_kbp_logo"
     transform="matrix(1.25,0,0,-1.25,0,1052.3625)"><g
       id="g3979"><g
         id="g3981"
         clip-path="url(#clipPath3983)"><path
           d="m 234.374,787.99 0.379,0.088 c 0.619,-1.697 1.553,-3.002 2.804,-3.915 1.252,-0.914 2.735,-1.371 4.451,-1.371 1.941,0 3.483,0.543 4.63,1.632 1.145,1.088 1.719,2.545 1.719,4.372 0,1.479 -0.401,2.677 -1.203,3.591 -0.801,0.912 -2.573,1.926 -5.315,3.044 -3.022,1.204 -5.062,2.409 -6.116,3.622 -1.056,1.211 -1.583,2.795 -1.583,4.752 0,2.671 0.833,4.761 2.501,6.278 1.666,1.515 3.962,2.273 6.886,2.273 2.601,0 5.027,-0.63 7.277,-1.892 0.012,0 0.021,-0.007 0.021,-0.023 -0.338,-0.696 -0.618,-1.403 -0.844,-2.12 -0.227,-0.719 -0.408,-1.462 -0.549,-2.231 l -0.422,0 c -0.281,1.466 -0.928,2.59 -1.941,3.374 -1.012,0.782 -2.34,1.174 -3.986,1.174 -1.645,0 -2.962,-0.48 -3.954,-1.435 -0.991,-0.958 -1.488,-2.222 -1.488,-3.787 0,-1.335 0.42,-2.427 1.255,-3.273 0.837,-0.849 2.507,-1.746 5.009,-2.687 3.277,-1.248 5.463,-2.499 6.56,-3.753 1.098,-1.254 1.645,-2.92 1.645,-4.994 0,-2.885 -1.005,-5.276 -3.015,-7.176 -2.011,-1.901 -4.571,-2.852 -7.678,-2.852 -1.618,0 -3.089,0.218 -4.418,0.653 -1.329,0.435 -2.478,1.08 -3.449,1.936 0.225,0.753 0.408,1.527 0.549,2.318 0.14,0.789 0.231,1.59 0.275,2.402"
           style="fill:#1d191b;fill-opacity:1;fill-rule:nonzero;stroke:none"
           id="path3987" /><path
           d="m 271.79,810.355 c -3.572,0 -6.339,-1.186 -8.3,-3.558 -1.962,-2.37 -2.942,-5.724 -2.942,-10.061 0,-4.554 0.963,-8.034 2.89,-10.443 1.925,-2.406 4.71,-3.611 8.352,-3.611 3.598,0 6.371,1.194 8.311,3.58 1.939,2.385 2.91,5.795 2.91,10.234 0,4.453 -0.971,7.876 -2.91,10.268 -1.94,2.393 -4.713,3.591 -8.311,3.591 m 0.042,-29.629 c -4.991,0 -8.925,1.408 -11.802,4.23 -2.876,2.822 -4.312,6.668 -4.312,11.54 0,4.903 1.434,8.763 4.303,11.585 2.869,2.821 6.791,4.23 11.769,4.23 5.074,0 9.023,-1.384 11.844,-4.155 2.818,-2.768 4.226,-6.655 4.226,-11.66 0,-4.945 -1.408,-8.808 -4.226,-11.595 -2.821,-2.786 -6.753,-4.175 -11.802,-4.175"
           style="fill:#1d191b;fill-opacity:1;fill-rule:nonzero;stroke:none"
           id="path3989" /><path
           d="m 292.732,811.747 c 0.38,-0.059 0.785,-0.102 1.213,-0.13 0.43,-0.031 0.882,-0.045 1.36,-0.045 0.48,0 0.929,0.014 1.351,0.045 0.421,0.028 0.823,0.071 1.201,0.13 -0.154,-1.857 -0.272,-3.409 -0.345,-4.656 -0.08,-1.246 -0.117,-2.27 -0.117,-3.067 l 0,-7.832 c 0,-2.118 0.059,-3.84 0.179,-5.166 0.118,-1.328 0.306,-2.324 0.559,-2.991 0.647,-1.696 1.58,-2.931 2.804,-3.698 1.224,-0.77 2.861,-1.154 4.915,-1.154 1.492,0 2.836,0.213 4.04,0.642 1.203,0.428 2.23,1.064 3.089,1.904 0.829,0.825 1.418,1.861 1.772,3.099 0.35,1.239 0.526,3.384 0.526,6.43 l 0,0.977 0,6.505 c 0,1.944 -0.037,3.626 -0.117,5.046 -0.075,1.422 -0.199,2.743 -0.366,3.961 0.295,-0.059 0.598,-0.102 0.906,-0.13 0.308,-0.031 0.639,-0.045 0.99,-0.045 0.367,0 0.707,0.014 1.024,0.045 0.317,0.028 0.608,0.071 0.877,0.13 -0.186,-1.277 -0.322,-2.81 -0.412,-4.601 -0.093,-1.792 -0.139,-3.87 -0.139,-6.235 l 0,-7.612 c 0,-4.193 -1.077,-7.334 -3.237,-9.431 -2.159,-2.096 -5.388,-3.142 -9.69,-3.142 -2.546,0 -4.673,0.37 -6.382,1.108 -1.71,0.739 -3.02,1.857 -3.934,3.351 -0.574,0.913 -0.986,1.959 -1.233,3.133 -0.248,1.174 -0.368,2.965 -0.368,5.371 l 0,1.524 0,8.876 c 0,1.407 -0.04,2.745 -0.117,4.015 -0.078,1.268 -0.193,2.481 -0.349,3.643"
           style="fill:#1d191b;fill-opacity:1;fill-rule:nonzero;stroke:none"
           id="path3991" /><path
           d="m 324.749,781.27 c 0.24,2.13 0.42,5.243 0.538,9.332 0.119,4.089 0.181,9.071 0.181,14.944 0,1.016 -0.012,2.089 -0.033,3.22 -0.021,1.131 -0.051,2.315 -0.094,3.545 l 1.561,0 c 3.271,-3.958 6.625,-7.888 10.061,-11.789 3.435,-3.902 6.94,-7.781 10.523,-11.64 l 0,12.161 c 0,1.48 -0.047,3.117 -0.138,4.916 -0.09,1.799 -0.212,3.727 -0.368,5.788 0.29,-0.044 0.591,-0.078 0.902,-0.099 0.312,-0.02 0.611,-0.031 0.902,-0.031 0.32,0 0.623,0.011 0.914,0.037 0.288,0.027 0.565,0.057 0.825,0.093 -0.224,-1.596 -0.404,-4.501 -0.538,-8.708 -0.131,-4.208 -0.201,-9.384 -0.201,-15.522 0,-0.668 0.012,-1.556 0.033,-2.666 0.021,-1.111 0.053,-2.465 0.094,-4.061 l -1.475,-0.023 c -0.97,1.336 -2.077,2.747 -3.323,4.233 -1.245,1.486 -2.875,3.332 -4.886,5.536 l -12.46,13.771 0,-12.118 c 0,-2.073 0.046,-4.015 0.135,-5.819 0.092,-1.807 0.23,-3.506 0.412,-5.1 -0.324,0.071 -0.637,0.125 -0.94,0.162 -0.301,0.036 -0.591,0.053 -0.874,0.053 -0.266,0 -0.542,-0.017 -0.821,-0.053 -0.283,-0.037 -0.591,-0.091 -0.93,-0.162"
           style="fill:#1d191b;fill-opacity:1;fill-rule:nonzero;stroke:none"
           id="path3993" /><path
           d="m 361.934,783.727 c 0.943,-0.131 1.793,-0.225 2.552,-0.282 0.759,-0.06 1.45,-0.088 2.066,-0.088 4.545,0 7.963,1.135 10.263,3.405 2.298,2.27 3.449,5.666 3.449,10.191 0,4.28 -1.105,7.502 -3.313,9.67 -2.208,2.169 -5.469,3.252 -9.787,3.252 -0.873,0 -1.736,-0.019 -2.593,-0.053 -0.859,-0.037 -1.737,-0.098 -2.637,-0.185 -0.028,-1.696 -0.062,-3.88 -0.106,-6.55 -0.069,-3.887 -0.105,-6.083 -0.105,-6.591 0,-1.129 0.012,-2.637 0.044,-4.514 0.026,-1.877 0.082,-4.631 0.167,-8.255 m -4.829,-2.416 c 0.181,2.176 0.317,4.522 0.413,7.038 0.089,2.517 0.135,5.232 0.135,8.147 0,3.264 -0.042,6.121 -0.127,8.571 -0.085,2.451 -0.225,4.673 -0.421,6.659 0.619,-0.03 1.213,-0.057 1.781,-0.078 0.568,-0.019 1.115,-0.031 1.634,-0.031 0.928,0 2.418,0.048 4.46,0.151 2.048,0.102 3.626,0.153 4.738,0.153 5.005,0 8.811,-1.259 11.42,-3.776 2.608,-2.516 3.912,-6.202 3.912,-11.06 0,-4.961 -1.488,-8.829 -4.472,-11.608 -2.981,-2.776 -7.149,-4.166 -12.508,-4.166 -0.813,0 -2.065,0.038 -3.752,0.112 -1.686,0.07 -2.967,0.108 -3.839,0.108 -0.52,0 -1.054,-0.019 -1.602,-0.053 -0.55,-0.039 -1.141,-0.093 -1.772,-0.167"
           style="fill:#1d191b;fill-opacity:1;fill-rule:nonzero;stroke:none"
           id="path3995" /><path
           d="m 235.406,744.765 c 0.182,2.175 0.321,4.52 0.411,7.037 0.092,2.516 0.138,5.232 0.138,8.147 0,3.261 -0.042,6.121 -0.125,8.571 -0.087,2.451 -0.227,4.67 -0.424,6.657 1.419,-0.031 2.809,-0.055 4.17,-0.075 1.363,-0.023 2.704,-0.034 4.025,-0.034 1.347,0 2.656,0.011 3.927,0.034 1.271,0.02 2.503,0.052 3.697,0.098 -0.042,-0.263 -0.074,-0.516 -0.094,-0.762 -0.024,-0.248 -0.032,-0.5 -0.032,-0.762 0,-0.233 0.008,-0.482 0.032,-0.75 0.02,-0.268 0.052,-0.548 0.094,-0.839 -1.024,0.248 -2.123,0.431 -3.294,0.556 -1.173,0.123 -2.439,0.187 -3.801,0.187 l -3.979,0 0,-6.224 0,-4.59 4.359,0 c 0.911,0 1.861,0.032 2.852,0.097 0.988,0.067 2.037,0.164 3.146,0.293 -0.044,-0.302 -0.067,-0.553 -0.073,-0.749 -0.008,-0.195 -0.011,-0.387 -0.011,-0.577 0,-0.29 0.021,-0.763 0.063,-1.414 l 0,-0.24 c -1.404,0.132 -2.61,0.23 -3.619,0.294 -1.012,0.065 -1.84,0.099 -2.485,0.099 l -4.232,0 0,-4.721 c 0,-1.017 0.015,-2.204 0.044,-3.567 0.028,-1.364 0.068,-2.829 0.125,-4.396 l 3.936,0 c 1.165,0 2.341,0.062 3.526,0.185 1.186,0.124 2.383,0.309 3.591,0.554 -0.043,-0.187 -0.068,-0.39 -0.074,-0.607 -0.007,-0.219 -0.01,-0.544 -0.01,-0.979 0,-0.435 0.006,-0.759 0.021,-0.97 0.012,-0.208 0.027,-0.393 0.041,-0.553 -1.193,0.043 -2.426,0.077 -3.696,0.097 -1.27,0.022 -2.581,0.034 -3.928,0.034 -1.334,0 -2.693,-0.012 -4.075,-0.034 -1.383,-0.02 -2.8,-0.054 -4.246,-0.097"
           style="fill:#1d191b;fill-opacity:1;fill-rule:nonzero;stroke:none"
           id="path3997" /><path
           d="m 256.752,744.721 c 0.239,2.133 0.418,5.243 0.537,9.333 0.118,4.091 0.18,9.07 0.18,14.943 0,1.017 -0.011,2.09 -0.033,3.222 -0.02,1.13 -0.052,2.312 -0.093,3.547 l 1.559,0 c 3.274,-3.962 6.628,-7.891 10.063,-11.791 3.434,-3.903 6.94,-7.782 10.523,-11.639 l 0,12.159 c 0,1.482 -0.047,3.118 -0.138,4.918 -0.09,1.8 -0.213,3.727 -0.368,5.787 0.289,-0.046 0.592,-0.078 0.9,-0.098 0.315,-0.023 0.613,-0.034 0.903,-0.034 0.319,0 0.623,0.013 0.914,0.039 0.29,0.024 0.567,0.057 0.826,0.093 -0.225,-1.598 -0.404,-4.501 -0.539,-8.708 -0.131,-4.211 -0.2,-9.385 -0.2,-15.524 0,-0.666 0.012,-1.556 0.033,-2.666 0.021,-1.111 0.053,-2.462 0.095,-4.06 l -1.476,-0.022 c -0.971,1.336 -2.078,2.744 -3.325,4.233 -1.244,1.485 -2.873,3.331 -4.885,5.535 l -12.461,13.77 0,-12.116 c 0,-2.075 0.047,-4.014 0.138,-5.821 0.09,-1.804 0.228,-3.507 0.41,-5.1 -0.323,0.071 -0.635,0.127 -0.938,0.163 -0.302,0.037 -0.594,0.054 -0.875,0.054 -0.268,0 -0.541,-0.017 -0.822,-0.054 -0.282,-0.036 -0.592,-0.092 -0.928,-0.163"
           style="fill:#1d191b;fill-opacity:1;fill-rule:nonzero;stroke:none"
           id="path3999" /><path
           d="m 315.491,745.938 c -2.082,-0.61 -4.114,-1.062 -6.096,-1.358 -1.984,-0.298 -3.911,-0.446 -5.78,-0.446 -5.159,0 -9.171,1.395 -12.033,4.186 -2.86,2.791 -4.292,6.698 -4.292,11.715 0,4.8 1.515,8.623 4.547,11.466 3.029,2.841 7.097,4.263 12.201,4.263 2.15,0 4.155,-0.225 6.01,-0.674 1.856,-0.449 3.543,-1.111 5.062,-1.98 -0.352,-0.668 -0.623,-1.351 -0.812,-2.056 -0.191,-0.704 -0.299,-1.434 -0.325,-2.185 l -0.678,0 c -1.109,1.695 -2.452,2.958 -4.026,3.785 -1.574,0.827 -3.417,1.239 -5.526,1.239 -3.487,0 -6.296,-1.243 -8.427,-3.73 -2.129,-2.487 -3.195,-5.783 -3.195,-9.888 0,-4.422 1.046,-7.875 3.144,-10.354 2.092,-2.48 5.004,-3.722 8.731,-3.722 1.164,0 2.313,0.131 3.439,0.392 1.123,0.263 2.242,0.668 3.354,1.22 0.041,0.725 0.07,1.446 0.094,2.165 0.018,0.716 0.03,1.446 0.03,2.187 0,1.128 -0.024,2.224 -0.073,3.281 -0.05,1.061 -0.124,2.096 -0.222,3.114 0.393,-0.075 0.777,-0.133 1.15,-0.175 0.373,-0.044 0.75,-0.066 1.128,-0.066 0.435,0 0.87,0.022 1.297,0.066 0.429,0.042 0.863,0.1 1.298,0.175 -0.072,-1.221 -0.124,-2.355 -0.159,-3.406 -0.035,-1.052 -0.053,-2.048 -0.053,-2.989 0,-0.96 0.018,-1.95 0.053,-2.972 0.035,-1.022 0.087,-2.106 0.159,-3.253"
           style="fill:#1d191b;fill-opacity:1;fill-rule:nonzero;stroke:none"
           id="path4001" /><path
           d="m 320.89,744.765 c 0.169,2.261 0.298,4.655 0.392,7.177 0.09,2.524 0.136,5.193 0.136,8.007 0,3.175 -0.046,6 -0.136,8.474 -0.094,2.471 -0.223,4.722 -0.392,6.754 0.451,-0.058 0.886,-0.106 1.307,-0.141 0.422,-0.037 0.838,-0.055 1.245,-0.055 0.394,0 0.801,0.017 1.223,0.048 0.423,0.035 0.872,0.084 1.351,0.148 -0.169,-1.885 -0.295,-4.004 -0.379,-6.359 -0.087,-2.355 -0.129,-5.314 -0.129,-8.88 0,-3.145 0.042,-5.95 0.129,-8.415 0.084,-2.461 0.21,-4.715 0.379,-6.758 -0.353,0.073 -0.734,0.127 -1.15,0.163 -0.415,0.035 -0.889,0.053 -1.424,0.053 -0.535,0 -1.007,-0.018 -1.424,-0.053 -0.415,-0.036 -0.789,-0.09 -1.128,-0.163"
           style="fill:#1d191b;fill-opacity:1;fill-rule:nonzero;stroke:none"
           id="path4003" /><path
           d="m 332.659,744.721 c 0.24,2.133 0.419,5.243 0.537,9.333 0.12,4.091 0.181,9.07 0.181,14.943 0,1.017 -0.012,2.09 -0.033,3.222 -0.021,1.13 -0.051,2.312 -0.094,3.547 l 1.562,0 c 3.272,-3.962 6.626,-7.891 10.06,-11.791 3.436,-3.903 6.941,-7.782 10.524,-11.639 l 0,12.159 c 0,1.482 -0.047,3.118 -0.137,4.918 -0.092,1.8 -0.214,3.727 -0.368,5.787 0.288,-0.046 0.59,-0.078 0.9,-0.098 0.313,-0.023 0.611,-0.034 0.902,-0.034 0.32,0 0.623,0.013 0.914,0.039 0.289,0.024 0.565,0.057 0.826,0.093 -0.224,-1.598 -0.405,-4.501 -0.538,-8.708 -0.132,-4.211 -0.201,-9.385 -0.201,-15.524 0,-0.666 0.011,-1.556 0.033,-2.666 0.02,-1.111 0.052,-2.462 0.094,-4.06 l -1.475,-0.022 c -0.97,1.336 -2.077,2.744 -3.325,4.233 -1.245,1.485 -2.873,3.331 -4.885,5.535 l -12.46,13.77 0,-12.116 c 0,-2.075 0.046,-4.014 0.137,-5.821 0.09,-1.804 0.228,-3.507 0.411,-5.1 -0.324,0.071 -0.638,0.127 -0.941,0.163 -0.301,0.037 -0.592,0.054 -0.874,0.054 -0.265,0 -0.542,-0.017 -0.821,-0.054 -0.283,-0.036 -0.591,-0.092 -0.929,-0.163"
           style="fill:#1d191b;fill-opacity:1;fill-rule:nonzero;stroke:none"
           id="path4005" /><path
           d="m 365.013,744.765 c 0.184,2.175 0.32,4.52 0.411,7.037 0.092,2.516 0.139,5.232 0.139,8.147 0,3.261 -0.043,6.121 -0.128,8.571 -0.084,2.451 -0.226,4.67 -0.422,6.657 1.418,-0.031 2.808,-0.055 4.17,-0.075 1.362,-0.023 2.703,-0.034 4.025,-0.034 1.346,0 2.655,0.011 3.929,0.034 1.268,0.02 2.5,0.052 3.693,0.098 -0.042,-0.263 -0.071,-0.516 -0.094,-0.762 -0.021,-0.248 -0.03,-0.5 -0.03,-0.762 0,-0.233 0.009,-0.482 0.03,-0.75 0.023,-0.268 0.052,-0.548 0.094,-0.839 -1.023,0.248 -2.124,0.431 -3.293,0.556 -1.172,0.123 -2.439,0.187 -3.801,0.187 l -3.977,0 0,-6.224 0,-4.59 4.358,0 c 0.911,0 1.862,0.032 2.851,0.097 0.988,0.067 2.038,0.164 3.146,0.293 -0.043,-0.302 -0.065,-0.553 -0.073,-0.749 -0.008,-0.195 -0.012,-0.387 -0.012,-0.577 0,-0.29 0.024,-0.763 0.066,-1.414 l 0,-0.24 c -1.404,0.132 -2.612,0.23 -3.621,0.294 -1.011,0.065 -1.838,0.099 -2.486,0.099 l -4.229,0 0,-4.721 c 0,-1.017 0.013,-2.204 0.042,-3.567 0.029,-1.364 0.069,-2.829 0.127,-4.396 l 3.936,0 c 1.164,0 2.34,0.062 3.526,0.185 1.185,0.124 2.382,0.309 3.589,0.554 -0.043,-0.187 -0.066,-0.39 -0.073,-0.607 -0.008,-0.219 -0.01,-0.544 -0.01,-0.979 0,-0.435 0.006,-0.759 0.021,-0.97 0.011,-0.208 0.026,-0.393 0.042,-0.553 -1.194,0.043 -2.427,0.077 -3.697,0.097 -1.271,0.022 -2.581,0.034 -3.93,0.034 -1.333,0 -2.692,-0.012 -4.075,-0.034 -1.382,-0.02 -2.799,-0.054 -4.244,-0.097"
           style="fill:#1d191b;fill-opacity:1;fill-rule:nonzero;stroke:none"
           id="path4007" /><path
           d="m 214.395,780.767 c -3.284,3.991 -8.957,6.4 -15.73,7.771 l 16.973,23.575 -38.216,0 0.001,0.055 -14.571,-0.055 -18.574,-27.328 -18.541,27.328 -32.607,0 0,-32.599 -31.303,0 0,32.599 -18.626,0 -0.026,-1.947 c 0,0 2.968,0.302 6.245,-1.296 3.324,-1.621 3.324,-4.217 3.324,-4.217 l 0,-60.497 9.083,0 0,30.655 31.303,0 0,-30.655 9.082,0 0,60.497 c 0,0 0,3.19 2.271,4.217 1.279,0.578 2.517,0.582 4.08,0.582 2.312,-0.187 3.059,-0.132 4.657,-1.069 2.655,-1.556 3.821,-3.181 3.821,-3.181 l 19.994,-29.419 -22.191,-31.627 8.591,0 18.329,26.275 17.84,-26.275 13.142,0 -24.155,35.048 17.664,26.134 c 0,0 1.779,2.417 3.49,3.747 1.517,1.183 6.344,1.117 7.404,1.087 l 0.07,-4.871 c 3.967,3.724 26.233,2.776 26.233,2.776 l -17.574,-24.727 8.146,-0.163 c 5.01,0 8.156,-2.152 11.097,-4.897 2.94,-2.747 3.942,-6.832 3.942,-11.377 0,-4.205 -1.44,-9.187 -4.317,-11.946 -2.878,-2.76 -6.604,-4.139 -11.178,-4.139 -3.702,0 -7.07,0.859 -10.105,2.572 -3.032,1.716 -3.032,1.716 -7.07,5.639 l -4.515,-8.729 c 6.691,-4.034 12.51,-6.05 21.69,-6.05 7.778,0 13.724,2.197 18.703,6.801 2.271,2.086 4.012,4.497 5.227,7.229 1.213,2.731 1.82,5.568 1.82,8.515 0,5.32 -1.641,9.975 -4.923,13.962"
           style="fill:#1d191b;fill-opacity:1;fill-rule:nonzero;stroke:none"
           id="path4009" /><path
           d="m 524.161,747.046 0,0.814 2.464,0 0,2.005 -2.464,0 0,0.766 2.717,0 0,2.119 -5.738,0 0,-7.823 5.808,0 0,2.119 -2.787,0 z m -7.461,0.646 c -0.321,-0.244 -0.827,-0.366 -1.522,-0.369 l 0,3.015 0.135,0 c 0.63,0 1.102,-0.124 1.405,-0.373 0.31,-0.247 0.46,-0.625 0.46,-1.134 0,-0.515 -0.16,-0.895 -0.478,-1.139 m 1.319,4.568 c -0.354,0.165 -0.808,0.291 -1.371,0.369 -0.562,0.082 -1.237,0.121 -2.033,0.121 l -2.493,0 0,-7.823 2.266,0 c 0.938,0 1.687,0.039 2.247,0.118 0.558,0.078 1.021,0.203 1.384,0.373 0.747,0.36 1.319,0.832 1.712,1.417 0.396,0.584 0.593,1.25 0.593,1.996 0,0.754 -0.197,1.423 -0.596,2.011 -0.397,0.589 -0.966,1.06 -1.709,1.418 m -7.662,-5.301 c -0.326,0.255 -0.72,0.38 -1.185,0.38 -0.467,0 -0.861,-0.125 -1.185,-0.38 -0.323,-0.25 -0.483,-0.556 -0.483,-0.907 0,-0.355 0.159,-0.657 0.482,-0.91 0.321,-0.252 0.715,-0.377 1.186,-0.377 0.469,0 0.867,0.125 1.187,0.377 0.326,0.253 0.487,0.555 0.487,0.91 0,0.351 -0.164,0.657 -0.489,0.907 m -64.205,44.099 c 0,-0.354 0.147,-0.66 0.443,-0.912 0.294,-0.254 0.656,-0.38 1.087,-0.38 0.43,0 0.793,0.126 1.091,0.38 0.296,0.252 0.443,0.558 0.443,0.912 0,0.356 -0.147,0.66 -0.446,0.914 -0.299,0.253 -0.662,0.379 -1.088,0.379 -0.427,0 -0.789,-0.126 -1.086,-0.379 -0.294,-0.254 -0.444,-0.558 -0.444,-0.914 m -26.106,-1.121 0.591,2.69 c 0.011,0.048 0.025,0.11 0.045,0.19 0.107,0.485 0.166,0.857 0.177,1.116 l 0.104,0 c 0.009,-0.259 0.066,-0.63 0.176,-1.111 0.016,-0.082 0.032,-0.147 0.044,-0.195 l 0.591,-2.69 2.473,0 1.835,6.277 1.829,-6.277 2.475,0 0.592,2.69 c 0.011,0.048 0.024,0.11 0.043,0.19 0.107,0.485 0.166,0.857 0.177,1.116 l 0.102,0 c 0.011,-0.259 0.071,-0.63 0.179,-1.111 0.017,-0.082 0.032,-0.147 0.042,-0.195 l 0.593,-2.69 2.475,0 1.833,6.276 1.829,-6.276 2.473,0 0.593,2.69 c 0.009,0.048 0.025,0.11 0.044,0.19 0.107,0.485 0.165,0.857 0.176,1.116 l 0.105,0 c 0.01,-0.259 0.068,-0.63 0.176,-1.111 0.017,-0.082 0.033,-0.147 0.042,-0.195 l 0.594,-2.69 2.472,0 2.308,7.893 -2.845,0 -0.619,-3.477 c -0.055,-0.307 -0.096,-0.585 -0.124,-0.838 -0.029,-0.254 -0.048,-0.492 -0.054,-0.715 l -0.066,0 c -0.005,0.31 -0.064,0.721 -0.167,1.235 -0.011,0.051 -0.019,0.087 -0.023,0.108 l -0.747,3.687 -2.001,0 -0.747,-3.682 c -0.008,-0.029 -0.013,-0.065 -0.021,-0.113 -0.104,-0.509 -0.161,-0.922 -0.166,-1.235 l -0.067,0 c -0.006,0.223 -0.024,0.461 -0.053,0.715 -0.03,0.253 -0.071,0.531 -0.124,0.838 l -0.62,3.477 -4.742,0 -0.618,-3.477 c -0.056,-0.307 -0.096,-0.585 -0.123,-0.838 -0.03,-0.254 -0.049,-0.492 -0.056,-0.715 l -0.063,0 c -0.008,0.31 -0.065,0.721 -0.168,1.235 -0.012,0.051 -0.02,0.087 -0.024,0.108 l -0.747,3.687 -1.999,0 -0.749,-3.682 c -0.008,-0.029 -0.012,-0.065 -0.021,-0.113 -0.103,-0.509 -0.161,-0.922 -0.168,-1.235 l -0.065,0 c -0.005,0.223 -0.024,0.461 -0.054,0.715 -0.027,0.253 -0.069,0.531 -0.123,0.838 l -0.62,3.477 -4.744,0 -0.617,-3.477 c -0.055,-0.307 -0.094,-0.585 -0.125,-0.838 -0.026,-0.254 -0.045,-0.492 -0.053,-0.715 l -0.065,0 c -0.007,0.31 -0.062,0.721 -0.166,1.235 -0.012,0.051 -0.018,0.087 -0.022,0.108 l -0.749,3.687 -1.999,0 -0.749,-3.682 c -0.009,-0.029 -0.014,-0.065 -0.021,-0.113 -0.105,-0.509 -0.16,-0.922 -0.168,-1.235 l -0.064,0 c -0.008,0.223 -0.027,0.461 -0.054,0.715 -0.03,0.253 -0.069,0.531 -0.124,0.838 l -0.62,3.477 -2.84,0 2.302,-7.893 2.474,0 z m 79.277,-35.467 c -0.302,-0.28 -0.736,-0.418 -1.298,-0.418 l -0.921,0 0,3.283 0.921,0 c 0.562,0 0.996,-0.143 1.298,-0.432 0.304,-0.285 0.456,-0.696 0.456,-1.232 0,-0.522 -0.152,-0.922 -0.456,-1.201 m 5.3,-1.413 c 0.583,0.768 0.873,1.747 0.873,2.936 0,1.82 -0.577,3.214 -1.732,4.18 -1.156,0.967 -2.829,1.451 -5.02,1.451 l -7.541,0 0,-16.697 5.901,0 0,5.496 2.881,-5.496 6.759,0 -4.484,6.782 c 0.992,0.128 1.778,0.58 2.363,1.348 m -20.317,-1.834 4.788,0 0,4.288 -4.788,0 0,1.582 5.277,0 0,4.531 -11.177,0 0,-16.697 11.313,0 0,4.532 -5.413,0 0,1.764 z m -13.819,4.801 c 0,-0.76 0.012,-1.377 0.039,-1.848 0.026,-0.472 0.074,-0.902 0.142,-1.288 l -5.185,8.736 -5.884,0 0,-16.697 5.808,0 0,6.022 c 0,0.532 -0.015,1.014 -0.047,1.442 -0.028,0.43 -0.076,0.832 -0.137,1.204 l 5.125,-8.668 5.916,0 0,16.697 -5.777,0 0,-5.6 z m -24.577,0.126 3.348,0 0,-11.223 5.991,0 0,11.223 3.345,0 0,5.474 -12.684,0 0,-5.474 z m -6.477,-1.68 c -0.303,-0.28 -0.736,-0.418 -1.299,-0.418 l -0.923,0 0,3.283 0.923,0 c 0.563,0 0.996,-0.143 1.299,-0.432 0.303,-0.285 0.456,-0.696 0.456,-1.232 0,-0.522 -0.153,-0.922 -0.456,-1.201 m -18.604,-3.46 0.515,1.89 c 0.25,0.958 0.423,1.693 0.513,2.209 0.092,0.516 0.149,1.003 0.171,1.459 l 0.105,0 c 0.02,-0.456 0.078,-0.943 0.169,-1.459 0.093,-0.516 0.263,-1.251 0.513,-2.209 l 0.515,-1.89 -2.501,0 z m 23.902,2.047 c 0.582,0.768 0.875,1.747 0.875,2.936 0,1.82 -0.579,3.214 -1.735,4.18 -1.156,0.967 -2.827,1.451 -5.017,1.451 l -7.543,0 0,-16.555 -5.798,16.555 -6.694,0 -5.951,-16.697 6.441,0 0.517,2.098 4.532,0 0.538,-2.098 12.315,0 0,5.496 2.884,-5.496 6.758,0 -4.484,6.782 c 0.992,0.128 1.777,0.58 2.362,1.348 m -35.811,1.505 c -0.306,-0.24 -0.744,-0.359 -1.317,-0.359 l -0.94,0 0,2.768 0.94,0 c 0.558,0 0.993,-0.123 1.305,-0.368 0.314,-0.246 0.472,-0.589 0.472,-1.028 0,-0.438 -0.154,-0.776 -0.46,-1.013 m 6.176,0.973 c 0,2.114 -0.584,3.655 -1.75,4.629 -1.167,0.972 -3.014,1.46 -5.536,1.46 l -7.19,0 0,-16.697 6.021,0 0,4.927 1.889,0 c 2.28,0 3.945,0.455 4.994,1.363 1.046,0.908 1.572,2.347 1.572,4.318 m 77.956,24.293 0.334,0 c 1.568,0 2.732,-0.345 3.493,-1.034 0.761,-0.689 1.141,-1.738 1.141,-3.144 0,-1.439 -0.397,-2.495 -1.192,-3.168 -0.793,-0.674 -2.053,-1.016 -3.776,-1.026 l 0,8.372 z m 7.048,-13.643 c 1.855,0.996 3.271,2.305 4.253,3.923 0.982,1.62 1.469,3.465 1.469,5.538 0,2.083 -0.491,3.939 -1.477,5.568 -0.986,1.63 -2.402,2.937 -4.245,3.924 -0.875,0.464 -2.009,0.808 -3.401,1.029 -1.395,0.223 -3.078,0.333 -5.048,0.333 l -6.209,0 0,-21.678 5.642,0 c 2.328,0 4.188,0.108 5.578,0.325 1.389,0.218 2.533,0.564 3.438,1.038 m -24.442,11.028 c -0.387,-0.363 -0.941,-0.545 -1.659,-0.545 l -1.176,0 0,4.264 1.176,0 c 0.718,0 1.272,-0.187 1.659,-0.559 0.388,-0.373 0.583,-0.906 0.583,-1.602 0,-0.676 -0.195,-1.196 -0.583,-1.558 m -23.747,-4.493 0.657,2.453 c 0.32,1.243 0.539,2.199 0.656,2.869 0.116,0.671 0.188,1.303 0.217,1.894 l 0.133,0 c 0.028,-0.591 0.099,-1.223 0.219,-1.894 0.115,-0.67 0.334,-1.626 0.654,-2.869 l 0.657,-2.453 -3.193,0 z m 27.497,0.907 c 1.264,0.168 2.268,0.752 3.013,1.751 0.745,0.999 1.118,2.268 1.118,3.811 0,2.363 -0.738,4.172 -2.215,5.429 -1.474,1.255 -3.608,1.882 -6.403,1.882 l -9.627,0 0,-21.505 -7.405,21.505 -8.542,0 -7.597,-21.678 8.222,0 0.657,2.725 5.788,0 0.686,-2.725 15.72,0 0,7.134 3.68,-7.134 8.627,0 -5.722,8.805 z m -45.14,-0.974 c -0.657,-0.746 -1.523,-1.119 -2.6,-1.119 -1.079,0 -1.948,0.373 -2.609,1.119 -0.66,0.744 -0.991,1.732 -0.991,2.966 0,1.233 0.331,2.23 0.991,2.99 0.661,0.76 1.53,1.14 2.609,1.14 1.077,0 1.943,-0.379 2.6,-1.134 0.655,-0.755 0.983,-1.753 0.983,-2.996 0,-1.234 -0.328,-2.222 -0.983,-2.966 m 5.569,11.049 c -1.078,1.066 -2.311,1.878 -3.7,2.436 -1.387,0.557 -2.884,0.838 -4.484,0.838 -1.601,0 -3.096,-0.281 -4.485,-0.838 -1.389,-0.558 -2.617,-1.37 -3.684,-2.436 -1.058,-1.046 -1.859,-2.255 -2.402,-3.628 -0.545,-1.372 -0.816,-2.864 -0.816,-4.472 0,-1.61 0.271,-3.095 0.816,-4.458 0.543,-1.363 1.344,-2.568 2.402,-3.612 1.078,-1.077 2.311,-1.896 3.699,-2.459 1.386,-0.562 2.879,-0.844 4.47,-0.844 1.571,0 3.055,0.282 4.449,0.844 1.392,0.563 2.622,1.372 3.69,2.428 1.069,1.075 1.879,2.299 2.434,3.666 0.552,1.368 0.828,2.846 0.828,4.435 0,1.598 -0.274,3.086 -0.824,4.457 -0.547,1.371 -1.344,2.587 -2.393,3.643 m -31.337,-13.51 0,3.435 1.284,0 c 0.772,0 1.366,-0.147 1.779,-0.44 0.419,-0.293 0.626,-0.72 0.626,-1.278 0,-0.548 -0.207,-0.971 -0.626,-1.269 -0.413,-0.3 -1.007,-0.448 -1.779,-0.448 l -1.284,0 z m 0,11.135 1.007,0 c 0.62,0 1.095,-0.128 1.418,-0.385 0.326,-0.258 0.488,-0.631 0.488,-1.127 0,-0.495 -0.162,-0.873 -0.488,-1.135 -0.323,-0.262 -0.798,-0.393 -1.418,-0.393 l -1.007,0 0,3.04 z m 8.929,-14.962 c 1.347,1.03 2.021,2.555 2.021,4.574 0,1.429 -0.354,2.568 -1.061,3.415 -0.709,0.847 -1.784,1.423 -3.23,1.73 1.058,0.236 1.877,0.749 2.454,1.535 0.576,0.786 0.865,1.774 0.865,2.961 0,1.859 -0.613,3.311 -1.838,4.355 -1.227,1.044 -2.934,1.565 -5.122,1.565 l -10.198,0 0,-21.678 10.167,0 c 2.616,0 4.596,0.514 5.942,1.543 m 79.548,40.873 c -0.02,-0.05 -0.056,-0.134 -0.103,-0.252 -0.266,-0.672 -0.448,-1.18 -0.555,-1.526 l -0.043,0.149 c -0.225,0.731 -0.42,1.279 -0.584,1.644 l -1.794,4.205 -21.431,0 0,-21.108 -6.951,10.431 6.441,10.677 -8.684,0 -4.866,-9.24 0,9.24 -7.531,0 0,-21.68 7.531,0 0,9.064 5.167,-9.064 23.333,0 0,5.884 -6.909,0 0,2.29 6.11,0 0,5.57 -6.11,0 0,2.053 6.734,0 0,3.207 5.565,-9.422 0,-9.582 7.724,0 0,9.582 7.415,12.098 -8.698,0 -1.761,-4.22 z"
           style="fill:#050301;fill-opacity:1;fill-rule:nonzero;stroke:none"
           id="path4011" /></g></g></g></svg>