M48
INCH
T1C00.032
T2C00.035
T3C00.037
T4C00.059
T5C00.126
%
T001
X01242Y01891
X01342Y01891
X01342Y02041
X01342Y02441
X01342Y02591
X01342Y02891
X01442Y01891
X01442Y02041
X01442Y02441
X01442Y02591
X01442Y02891
X01542Y01891
X01542Y02041
X01542Y02441
X01542Y02591
X01542Y02891
X01642Y01891
X01642Y02041
X01642Y02441
X01642Y02591
X01642Y02891
X01742Y01891
X01742Y02041
X01742Y02441
X01742Y02591
X01742Y02891
X01842Y01891
X01842Y02041
X01842Y02441
X01842Y02591
X01842Y02891
X01942Y01891
X01942Y02041
X01942Y02441
X01942Y02591
X01942Y02891
X02042Y01891
X02042Y02041
X02042Y02441
X02042Y02591
X02042Y02891
X02267Y02141
X02267Y02341
X02492Y01891
X02492Y02041
X02492Y02441
X02592Y01891
X02592Y02041
X02592Y02441
X02592Y02591
X02592Y02891
X02692Y01891
X02692Y02041
X02692Y02441
X02692Y02591
X02692Y02891
X02792Y01891
X02792Y02041
X02792Y02441
X02792Y02591
X02792Y02891
X02892Y01891
X02892Y02041
X02892Y02441
X02892Y02591
X02892Y02891
X02992Y01891
X02992Y02041
X02992Y02441
X02992Y02591
X02992Y02891
X03092Y01891
X03092Y02041
X03092Y02441
X03092Y02591
X03092Y02891
X03192Y01891
X03192Y02041
X03192Y02441
X03192Y02591
X03192Y02891
X03292Y01891
X03292Y02041
X03292Y02441
X03292Y02591
X03292Y02891
X03642Y02041
X03642Y02441
X03742Y01891
X03742Y02041
X03742Y02441
X03842Y01891
X03842Y02041
X03842Y02441
X03842Y02591
X03842Y02891
X03942Y01891
X03942Y02041
X03942Y02441
X03942Y02591
X03942Y02891
X04042Y01891
X04042Y02041
X04042Y02441
X04042Y02591
X04042Y02891
X04142Y01891
X04142Y02041
X04142Y02441
X04142Y02591
X04142Y02891
X04242Y01891
X04242Y02041
X04242Y02441
X04242Y02591
X04242Y02891
X04342Y01891
X04342Y02041
X04342Y02441
X04342Y02591
X04342Y02891
X04442Y01891
X04442Y02041
X04442Y02441
X04442Y02591
X04442Y02891
X04542Y01891
X04542Y02041
X04542Y02441
X04542Y02591
X04542Y02891
X04642Y02041
X04642Y02441
X04742Y02141
X04742Y02341
X04842Y02041
X04842Y02441
X04942Y02191
X04942Y02591
X05042Y02191
X05042Y02591
T002
X01342Y01691
X01442Y01691
X01542Y01691
X01642Y01691
X01742Y01691
X01842Y01691
X01942Y01691
X02042Y01691
X02592Y01691
X02692Y01691
X02792Y01691
X02892Y01691
X02992Y01691
X03092Y01691
X03192Y01691
X03292Y01691
X03842Y01691
X03942Y01691
X04042Y01691
X04142Y01691
X04242Y01691
X04342Y01691
X04442Y01691
X04542Y01691
X04642Y01691
X04742Y01691
T003
X05167Y01691
X05242Y02391
X05242Y02491
X05242Y02591
X05242Y02691
X05242Y02791
X05267Y01691
X05342Y02391
X05342Y02491
X05342Y02591
X05342Y02691
X05342Y02791
T004
X01092Y01391
X01247Y01391
X01403Y01391
X01559Y01391
X01715Y01391
X01871Y01391
X02027Y01391
X02183Y01391
X02342Y01391
X02497Y01391
X02653Y01391
X02809Y01391
X02965Y01391
X03121Y01391
X03277Y01391
X03433Y01391
X03592Y01391
X03747Y01391
X03903Y01391
X04059Y01391
X04215Y01391
X04371Y01391
X04527Y01391
X04683Y01391
X04839Y01391
X04995Y01391
X05154Y01391
X05310Y01391
T005
X00817Y01341
X00817Y02903
X05679Y01341
X05679Y02903
M30
