M48
INCH
T1C00.032
T2C00.037
T3C00.040
T4C00.045
T5C00.050
T6C00.052
T7C00.060
T8C00.125
%
T001
X00842Y01467
X00842Y01567
X00942Y00517
X00942Y00717
X01042Y01717
X01042Y02017
X01092Y02717
X01092Y03117
X01092Y03417
X01092Y03517
X01092Y03617
X01092Y03717
X01092Y03817
X01129Y01204
X01129Y01304
X01142Y01717
X01142Y02017
X01242Y01467
X01242Y01567
X01242Y03017
X01242Y03117
X01242Y03217
X01242Y03317
X01242Y03417
X01242Y03517
X01242Y03617
X01242Y03717
X01242Y03917
X01342Y03917
X01542Y02417
X01542Y02817
X01542Y03017
X01542Y03117
X01542Y03217
X01542Y03317
X01542Y03417
X01542Y03517
X01542Y03617
X01542Y03717
X01742Y01017
X01742Y01217
X01742Y01417
X01742Y01717
X01742Y01817
X01742Y02117
X01742Y02317
X01742Y02517
X01742Y02817
X01742Y02917
X01742Y03017
X01742Y03217
X01742Y03417
X01742Y03617
X01742Y03917
X01742Y04016
X02042Y01017
X02042Y01217
X02042Y01417
X02042Y01717
X02042Y02117
X02042Y02317
X02042Y02517
X02042Y02817
X02042Y03217
X02042Y03417
X02042Y03617
X02042Y03917
X02142Y01817
X02142Y02917
X02142Y03017
X02142Y04016
X02192Y01717
X02192Y02817
X02192Y03917
X02292Y01717
X02292Y02817
X02292Y03917
X02642Y03217
X02642Y03417
X02642Y03617
X02642Y03917
X02942Y01917
X02942Y02017
X02942Y02117
X02942Y02217
X02942Y02317
X02942Y02717
X02942Y03217
X02942Y03417
X02942Y03617
X02942Y03917
X03092Y02467
X03092Y02567
X03142Y00517
X03142Y00917
X03142Y01017
X03142Y01217
X03142Y01617
X03142Y03017
X03142Y03417
X03142Y03517
X03142Y03917
X03242Y03217
X03242Y03617
X03342Y01917
X03342Y02017
X03342Y02117
X03342Y02217
X03342Y03217
X03342Y03617
X03442Y01517
X03442Y01617
X03442Y01717
X03442Y01817
X03442Y01917
X03442Y02017
X03442Y02117
X03442Y02217
X03442Y02317
X03442Y03117
X03442Y03217
X03442Y03317
X03442Y03417
X03542Y01017
X03542Y03567
X03542Y03767
X03642Y02417
X03642Y03567
X03642Y03767
X03742Y00517
X03742Y00817
X03742Y01917
X03742Y02017
X03742Y02117
X03742Y02217
X03742Y03117
X03742Y03217
X03742Y03317
X03742Y03417
X03842Y00517
X03842Y00817
X03842Y01517
X03842Y01617
X03842Y01717
X03842Y01817
X03842Y02317
X03842Y03117
X03842Y03517
X03842Y03617
X03842Y03717
X03942Y00517
X03942Y00817
X03942Y01317
X03942Y01517
X03942Y01717
X03942Y02117
X03942Y03117
X03942Y03517
X03992Y03867
X04042Y00517
X04042Y00817
X04042Y02417
X04042Y03117
X04042Y03517
X04092Y03867
X04142Y01717
X04142Y01817
X04142Y01917
X04142Y02317
X04242Y00517
X04242Y00717
X04242Y00817
X04242Y02817
X04242Y03117
X04242Y03217
X04242Y03517
X04242Y03617
X04242Y03717
X04342Y02617
X04342Y03317
X04342Y03517
X04442Y03217
X04442Y03617
X04542Y02617
X04642Y00817
X04742Y03217
X04742Y03617
X04842Y03417
X04842Y03617
X04942Y03317
X04942Y03617
X05042Y03317
X05042Y03617
X05042Y03729
X05142Y03317
X05142Y03617
X05242Y03317
X05242Y03617
X05342Y03217
X05342Y03617
X05342Y03729
X05442Y03417
X05442Y03817
X05629Y03417
X05629Y03817
X05942Y02817
X05942Y03017
X05942Y03217
X06342Y02817
X06342Y03017
X06342Y03217
T002
X00742Y01817
X00742Y01917
X00742Y02017
X00742Y02117
X00742Y02217
X00742Y02617
X00742Y02717
X00742Y02817
X00742Y02917
X00742Y03017
X00792Y00917
X00792Y01017
X00842Y01817
X00842Y01917
X00842Y02017
X00842Y02117
X00842Y02217
X00842Y02617
X00842Y02717
X00842Y02817
X00842Y02917
X00842Y03017
X01542Y01867
X01542Y01967
X01542Y02067
X01542Y02167
X02242Y01017
X02242Y01117
X02242Y01217
X02242Y01317
X02242Y01417
X02242Y02117
X02242Y02217
X02242Y02317
X02242Y02417
X02242Y02517
X02242Y03217
X02242Y03317
X02242Y03417
X02242Y03517
X02242Y03617
X02742Y01717
X02742Y01817
X02742Y01917
X02742Y02017
X02742Y02117
X02742Y02217
X02742Y02317
X02742Y02417
X03242Y04016
X03342Y04016
X03442Y04016
X03642Y01167
X03642Y04016
X03742Y04016
X03842Y04016
X04142Y00517
X04142Y00917
X05342Y04016
X05442Y04016
X05542Y04016
X05742Y04016
X05842Y04016
T003
X02842Y00817
X02842Y01017
X03842Y01167
X04342Y01217
X04342Y01417
X04342Y01917
X04442Y01817
X04442Y01917
X04442Y02017
X04942Y00517
X04942Y00717
X05442Y00517
X05442Y00717
X05642Y00517
X05642Y00717
T004
X03242Y02967
X03292Y00917
X03342Y02567
X03392Y00517
X03442Y02967
X03492Y00917
X03742Y02967
X03842Y02567
X03942Y02967
X04442Y02817
X04442Y03017
X04842Y02917
X05042Y02817
X05042Y03017
X05442Y02917
T005
X06542Y02917
X06542Y03017
X06542Y03217
T006
X01242Y00617
X01442Y00617
X05026Y01070
X05026Y01267
X05026Y02251
X05026Y02448
X06404Y01070
X06404Y01463
X06404Y02054
X06404Y02448
T007
X00792Y01161
X00792Y01317
X05242Y01279
X05398Y01279
X05554Y01279
X06011Y04016
X06167Y04016
T008
X00667Y00529
X00667Y04092
X06592Y00529
X06592Y04092
M30
