M48
INCH
T1C00.037
T2C00.059
T3C00.126
%
T001
X00617Y00392
X00617Y00492
X00617Y00592
X00617Y00692
X00617Y00792
X00617Y00892
X00617Y00992
X00617Y01092
X00617Y01192
X00617Y01292
X00617Y02192
X00617Y02292
X00617Y02392
X00617Y02492
X00617Y02592
X00617Y02692
X00617Y02792
X00617Y02892
X00617Y02992
X00617Y03092
X00617Y03192
X00617Y03292
X00617Y03392
X00617Y03492
X00867Y00692
X00867Y00792
X00867Y00892
X00867Y00992
X00867Y01092
X00867Y02492
X00867Y02592
X00867Y02692
X00867Y02792
X00867Y02892
X00867Y02992
X00867Y03092
X00867Y03192
X00967Y00692
X00967Y00792
X00967Y00892
X00967Y00992
X00967Y01092
X00967Y02492
X00967Y02592
X00967Y02692
X00967Y02792
X00967Y02892
X00967Y02992
X00967Y03092
X00967Y03192
X01767Y00392
X01767Y00492
X01767Y00592
X01767Y00692
X01767Y00792
X01767Y00892
X01767Y00992
X01767Y01092
X01767Y01192
X01767Y01292
X01767Y02192
X01767Y02292
X01767Y02392
X01767Y02492
X01767Y02592
X01767Y02692
X01767Y02792
X01767Y02892
X01767Y02992
X01767Y03092
X01767Y03192
X01767Y03292
X01767Y03392
X01767Y03492
X02017Y00692
X02017Y00792
X02017Y00892
X02017Y00992
X02017Y01092
X02017Y02492
X02017Y02592
X02017Y02692
X02017Y02792
X02017Y02892
X02017Y02992
X02017Y03092
X02017Y03192
X02117Y00692
X02117Y00792
X02117Y00892
X02117Y00992
X02117Y01092
X02117Y02492
X02117Y02592
X02117Y02692
X02117Y02792
X02117Y02892
X02117Y02992
X02117Y03092
X02117Y03192
X02917Y00392
X02917Y00492
X02917Y00592
X02917Y00692
X02917Y00792
X02917Y00892
X02917Y00992
X02917Y01092
X02917Y01192
X02917Y01292
X02917Y02192
X02917Y02292
X02917Y02392
X02917Y02492
X02917Y02592
X02917Y02692
X02917Y02792
X02917Y02892
X02917Y02992
X02917Y03092
X02917Y03192
X02917Y03292
X02917Y03392
X02917Y03492
X03167Y00692
X03167Y00792
X03167Y00892
X03167Y00992
X03167Y01092
X03167Y02492
X03167Y02592
X03167Y02692
X03167Y02792
X03167Y02892
X03167Y02992
X03167Y03092
X03167Y03192
X03267Y00692
X03267Y00792
X03267Y00892
X03267Y00992
X03267Y01092
X03267Y02492
X03267Y02592
X03267Y02692
X03267Y02792
X03267Y02892
X03267Y02992
X03267Y03092
X03267Y03192
X04067Y00392
X04067Y00492
X04067Y00592
X04067Y00692
X04067Y00792
X04067Y00892
X04067Y00992
X04067Y01092
X04067Y01192
X04067Y01292
X04067Y02192
X04067Y02292
X04067Y02392
X04067Y02492
X04067Y02592
X04067Y02692
X04067Y02792
X04067Y02892
X04067Y02992
X04067Y03092
X04067Y03192
X04067Y03292
X04067Y03392
X04067Y03492
X04317Y00692
X04317Y00792
X04317Y00892
X04317Y00992
X04317Y01092
X04317Y02492
X04317Y02592
X04317Y02692
X04317Y02792
X04317Y02892
X04317Y02992
X04317Y03092
X04317Y03192
X04417Y00692
X04417Y00792
X04417Y00892
X04417Y00992
X04417Y01092
X04417Y02492
X04417Y02592
X04417Y02692
X04417Y02792
X04417Y02892
X04417Y02992
X04417Y03092
X04417Y03192
T002
X00317Y00138
X00317Y00294
X00317Y00450
X00317Y00606
X00317Y00762
X00317Y00918
X00317Y01074
X00317Y01230
X00317Y01386
X00317Y01542
X00317Y01802
X00317Y01958
X00317Y02114
X00317Y02270
X00317Y02426
X00317Y02582
X00317Y02738
X00317Y02894
X00317Y03049
X00317Y03205
X00317Y03361
X00317Y03517
X00317Y03673
X00317Y03829
X01467Y00138
X01467Y00294
X01467Y00450
X01467Y00606
X01467Y00762
X01467Y00918
X01467Y01074
X01467Y01230
X01467Y01386
X01467Y01542
X01467Y01802
X01467Y01958
X01467Y02114
X01467Y02270
X01467Y02426
X01467Y02582
X01467Y02738
X01467Y02894
X01467Y03049
X01467Y03205
X01467Y03361
X01467Y03517
X01467Y03673
X01467Y03829
X02617Y00138
X02617Y00294
X02617Y00450
X02617Y00606
X02617Y00762
X02617Y00918
X02617Y01074
X02617Y01230
X02617Y01386
X02617Y01542
X02617Y01802
X02617Y01958
X02617Y02114
X02617Y02270
X02617Y02426
X02617Y02582
X02617Y02738
X02617Y02894
X02617Y03049
X02617Y03205
X02617Y03361
X02617Y03517
X02617Y03673
X02617Y03829
X03767Y00138
X03767Y00294
X03767Y00450
X03767Y00606
X03767Y00762
X03767Y00918
X03767Y01074
X03767Y01230
X03767Y01386
X03767Y01542
X03767Y01802
X03767Y01958
X03767Y02114
X03767Y02270
X03767Y02426
X03767Y02582
X03767Y02738
X03767Y02894
X03767Y03049
X03767Y03205
X03767Y03361
X03767Y03517
X03767Y03673
X03767Y03829
T003
X00867Y00229
X00867Y01492
X00867Y01917
X00867Y03729
X02017Y00229
X02017Y01492
X02017Y01917
X02017Y03729
X03167Y00229
X03167Y01492
X03167Y01917
X03167Y03729
X04317Y00229
X04317Y01492
X04317Y01917
X04317Y03729
M30
